<svg width="66" height="34" viewBox="0 0 66 34" fill="none" xmlns="http://www.w3.org/2000/svg">
<path fill-rule="evenodd" clip-rule="evenodd" d="M65.7571 7.5855L65.6734 7.16091C64.7697 2.72718 61.0707 0 55.9701 0H45.0167H10.0618C4.9573 0 1.22649 2.75577 0.322655 7.19356L0.239042 7.61815C0.0757935 8.58574 -0.00383945 9.54923 0.000142202 10.725V23.1403C0.00744108 24.5547 0.135158 25.5987 0.15642 25.7726L0.159409 25.7981L0.167372 25.843C0.768602 30.9503 4.46755 34 10.0618 34H41.3377H41.4372H43.2449H43.2488C43.5395 34 43.7744 33.7592 43.7744 33.4611V33.457V13.3542V13.3501C43.7744 13.0521 43.5395 12.8112 43.2488 12.8112H43.2449H41.3377H41.3336C41.043 12.8112 40.8081 13.0521 40.8081 13.3501V13.3542V30.9748H10.8024C5.83327 30.9748 2.9824 27.868 2.97842 23.2505L2.9824 10.6964C2.9824 6.03819 5.83327 3.03746 10.8024 3.03746H50.4198H55.2297C60.1987 3.03746 63.0178 6.00552 63.0178 10.6638L63.0217 23.2138C63.0178 27.8311 60.1947 30.9543 55.2256 30.9543L54.2104 30.9666C53.9993 30.9686 53.8022 30.9697 53.6051 30.9707C53.4081 30.9717 53.2109 30.9727 52.9999 30.9748H52.4305C52.1399 30.9748 51.905 31.2157 51.905 31.5138V31.5177V33.4448V33.4489C51.905 33.7468 52.1399 33.9878 52.4305 33.9878H52.8128L53.7643 33.9837C53.9434 33.9837 54.1224 33.9796 54.3015 33.9755H54.3019H55.9742C61.5684 33.9755 65.2315 30.9094 65.8327 25.8061L65.8407 25.7612L65.8438 25.7363C65.8654 25.564 65.9964 24.5192 66 23.1036V10.6924C66 9.51657 65.9164 8.55307 65.7571 7.5855ZM27.4658 21.9889C27.4658 24.022 28.708 25.4061 30.5594 25.4061H31.3876C31.6783 25.4061 31.9172 25.1651 31.9172 24.8631V23.1646V23.1607C31.9172 23.0218 31.8654 22.883 31.7658 22.7769C31.6624 22.6706 31.5269 22.6176 31.3916 22.6218H31.3876H30.436V9.03884V9.03475C30.436 8.73672 30.201 8.49585 29.9105 8.49585H29.9065H29.9024H27.9952H27.9913C27.7006 8.49585 27.4658 8.73672 27.4658 9.03475V21.9889ZM34.1388 14.4523V14.4483C34.1388 14.1502 34.3738 13.9093 34.6643 13.9093H34.6684H36.5756H36.5796C36.8702 13.9093 37.1052 14.1502 37.1052 14.4483V14.4523V22.6257H38.0329H38.0368C38.1722 22.6216 38.3075 22.6747 38.4111 22.7808C38.4589 22.8299 38.4987 22.8911 38.5226 22.9523C38.5464 23.0217 38.5624 23.0911 38.5624 23.1605V23.1646V24.8631V24.867C38.5624 25.1651 38.3275 25.4059 38.0368 25.4059H38.0329H37.2365C35.385 25.4059 34.1388 24.0383 34.1388 22.0052V14.4523ZM25.1921 9.26365C25.1997 9.25062 25.2041 9.23593 25.2083 9.22169C25.2107 9.21363 25.2131 9.20571 25.216 9.19833C25.2279 9.1616 25.2358 9.12485 25.2358 9.0881C25.2398 9.06769 25.2279 8.94114 25.2239 8.91255C25.208 8.84724 25.1801 8.79416 25.1483 8.73701L25.1424 8.72684C25.1334 8.71098 25.1256 8.69745 25.1124 8.68393C25.1005 8.67167 25.0886 8.66045 25.0766 8.64922V8.64913C25.0646 8.63794 25.0527 8.62673 25.0408 8.61452C25.0288 8.60636 25.0179 8.59819 25.007 8.59003C24.9959 8.58187 24.985 8.57369 24.9731 8.56553C24.9664 8.56208 24.9596 8.55831 24.9529 8.55447C24.9354 8.54472 24.9174 8.53465 24.8975 8.52879C24.8497 8.50837 24.7183 8.49204 24.7183 8.49204H22.5324H22.5284C22.5084 8.49204 22.4726 8.49204 22.4528 8.49613L22.4257 8.50235C22.3898 8.5105 22.3641 8.51632 22.3254 8.53287C22.2617 8.56145 22.2018 8.59819 22.154 8.65127L15.4291 14.5792C14.6884 15.3385 14.6209 16.543 15.2738 17.3799L22.0903 25.1695C22.0957 25.1776 22.1025 25.1838 22.11 25.1906C22.114 25.1941 22.118 25.198 22.1222 25.2022L22.1462 25.2267C22.1899 25.2675 22.2377 25.3001 22.2895 25.3246L22.2977 25.3284L22.3034 25.3308C22.3084 25.3328 22.3133 25.3348 22.3173 25.3369C22.3731 25.3573 22.4328 25.3736 22.4965 25.3736H22.5005H24.7342H24.7382H24.7421C24.7461 25.3736 24.7501 25.3695 24.7542 25.3695C24.8098 25.3695 24.8656 25.3573 24.9134 25.3369C24.9332 25.3287 24.9532 25.3205 24.9771 25.3083C25.009 25.292 25.0408 25.2675 25.0727 25.243C25.0806 25.2348 25.0896 25.2277 25.0985 25.2205C25.1074 25.2134 25.1164 25.2063 25.1243 25.1981C25.1602 25.1573 25.1921 25.1124 25.216 25.0634V25.061L25.2163 25.0597C25.2167 25.0586 25.2177 25.0576 25.2199 25.0552C25.2266 25.0416 25.2305 25.025 25.234 25.0104L25.2358 25.0022C25.2519 24.9573 25.2598 24.9083 25.2638 24.8633V24.8143C25.2598 24.7 25.2239 24.5857 25.1523 24.4918L17.9057 15.9796L25.0886 9.41879C25.1324 9.37389 25.1682 9.32082 25.1921 9.26365ZM36.5716 11.4762H34.6605C34.4335 11.4762 34.2463 11.3252 34.1666 11.1251C34.1468 11.068 34.1309 11.0067 34.1309 10.9414V9.03482V9.03074C34.1309 8.7368 34.3658 8.5 34.6565 8.5H34.6605H36.5676H36.5716C36.7865 8.5 36.9738 8.63472 37.0534 8.82661C37.0812 8.88785 37.0972 8.96134 37.0972 9.03482V10.9414C37.0972 11.0149 37.0812 11.0843 37.0534 11.1496C36.9738 11.3415 36.7906 11.4762 36.5716 11.4762ZM13.3824 9.01435C13.3824 8.71631 13.1474 8.47545 12.8568 8.47545H12.8528H10.9456H10.9416C10.8779 8.47545 10.8182 8.49177 10.7585 8.51218L10.7107 8.53668C10.6709 8.55709 10.635 8.58159 10.6032 8.61017C10.5972 8.61629 10.5902 8.62241 10.5833 8.62853C10.5763 8.63467 10.5693 8.64079 10.5634 8.64691C10.5235 8.68774 10.4917 8.73672 10.4678 8.78981C10.4678 8.79389 10.4638 8.79797 10.4598 8.80205C10.432 8.86737 10.416 8.93677 10.416 9.01435V24.8264C10.416 24.8998 10.432 24.9733 10.4598 25.0386C10.5395 25.2345 10.7266 25.3692 10.9416 25.3692H10.9456H12.8528H12.8568C13.1474 25.3692 13.3824 25.1284 13.3824 24.8303V24.8264V9.02251V9.01435ZM55.4607 19.9154L55.4367 20.0132C54.9748 22.2955 53.1393 23.7243 50.5632 23.7285H48.879H45.7455H45.7414C45.4508 23.7285 45.2159 23.4876 45.2159 23.1896V23.1854V21.2585C45.2159 21.2414 45.2202 21.2242 45.2245 21.2071C45.2274 21.1956 45.2302 21.1841 45.2318 21.1728C45.2344 21.1592 45.2363 21.1456 45.238 21.132C45.2416 21.1047 45.245 21.0774 45.2556 21.0502C45.2796 20.9973 45.3114 20.9482 45.3512 20.9033C45.3552 20.8992 45.3582 20.8941 45.3612 20.889C45.3641 20.8839 45.3671 20.8788 45.3711 20.8747C45.3751 20.8706 45.379 20.8686 45.383 20.8665C45.3871 20.8645 45.3911 20.8625 45.3949 20.8584C45.4389 20.8216 45.4866 20.7849 45.5423 20.7604C45.5691 20.7493 45.5978 20.7458 45.6269 20.7421C45.6412 20.7404 45.6555 20.7386 45.6697 20.7359C45.6815 20.7342 45.6917 20.7311 45.7018 20.728C45.7158 20.7237 45.7292 20.7196 45.7455 20.7196H48.879H50.181C51.9449 20.7196 52.8407 19.8989 52.8407 18.2822V18.2251C52.8407 16.6451 51.9449 15.8246 50.181 15.8246H48.879H45.7455C45.6737 15.8246 45.6021 15.8082 45.5384 15.7797C45.4149 15.7266 45.3114 15.6244 45.2596 15.4938C45.2318 15.4285 45.2159 15.355 45.2159 15.2816V13.3545C45.2159 13.2035 45.2756 13.0688 45.3711 12.9708C45.4667 12.8728 45.5981 12.8116 45.7414 12.8116H48.875H50.4995C53.2907 12.8116 55.2097 14.4201 55.5163 17.0085C55.5244 17.0534 55.7115 18.4293 55.4806 19.8091L55.4607 19.9154Z" fill="white"/>
</svg>
